#!OML:ASF F:\VICON\USERDATA\INSTALL\Justin_Nancy\Justin_Nancy.ASF
:FULLY-SPECIFIED
:DEGREES
183
root -12.9943 17.6697 10.454 -152.231 -79.0817 159.165
lowerback 11.6152 -0.528996 -4.88183
upperback 0.341456 -1.22209 2.80162
thorax -6.00618 -0.439723 5.94295
lowerneck -23.9193 -1.46047 -7.46609
upperneck 17.6167 -0.16072 3.19739
head 9.50477 -0.219297 2.31018
rclavicle -2.54444e-014 5.56597e-015
rhumerus -58.2793 1.98209 -84.9421
rradius 103.396
rwrist -19.6184
rhand -8.53835 23.0975
rfingers 7.12502
rthumb 17.3908 -6.14447
lclavicle -2.54444e-014 5.56597e-015
lhumerus -37.6328 -0.886435 92.6281
lradius 129.593
lwrist 29.7915
lhand -10.5835 10.3238
lfingers 7.12502
lthumb 15.4216 39.7285
rfemur -38.1809 -2.04368 23.713
rtibia 45.5997
rfoot -8.74409 1.66955
rtoes 0.105316
lfemur 4.59315 -6.06981 -23.5411
ltibia 29.0882
lfoot 10.8977 -3.91435
ltoes -22.2056
184
root -13.3529 17.7471 10.434 -156.785 -79.0516 163.932
lowerback 11.27 -0.50463 -4.25451
upperback 0.315614 -1.07981 3.12912
thorax -5.86387 -0.389457 5.90122
lowerneck -23.8801 -1.50626 -7.6094
upperneck 17.6356 -0.154165 3.09111
head 9.5052 -0.240322 2.29669
rclavicle -1.72943e-014 1.59028e-014
rhumerus -58.7592 1.68244 -84.809
rradius 103.275
rwrist -19.4094
rhand -8.39445 22.9438
rfingers 7.12502
rthumb 17.5293 -6.28587
lclavicle -1.72943e-014 1.59028e-014
lhumerus -38.371 -1.43155 93.0579
lradius 129.538
lwrist 29.5987
lhand -10.9143 9.92708
lfingers 7.12502
lthumb 15.1031 39.3561
rfemur -37.3709 -1.09254 24.5082
rtibia 40.9094
rfoot -7.18901 1.56434
rtoes -0.490042
lfemur 5.30121 -6.21011 -22.749
ltibia 28.3318
lfoot 14.7519 -4.22216
ltoes -19.4694
185
root -13.7213 17.8166 10.4252 -159.45 -79.0672 166.549
lowerback 11.114 -0.565508 -3.70092
upperback 0.312582 -1.08246 3.23294
thorax -5.78648 -0.408705 5.68983
lowerneck -23.6328 -1.45112 -7.53197
upperneck 17.4679 -0.110292 3.02167
head 9.40061 -0.220744 2.26285
rclavicle 3.75703e-014 -3.4191e-014
rhumerus -59.3184 1.36581 -84.7775
rradius 103.144
rwrist -18.4572
rhand -8.56552 23.273
rfingers 7.12502
rthumb 17.3646 -5.97132
lclavicle 3.75703e-014 -3.4191e-014
lhumerus -39.1676 -2.07261 93.2467
lradius 129.482
lwrist 29.6655
lhand -11.4864 9.80674
lfingers 7.12502
lthumb 14.5519 39.2763
rfemur -36.263 -0.745729 24.8964
rtibia 36.4689
rfoot -5.56971 1.48778
rtoes 0.295557
lfemur 5.97672 -5.4586 -22.02
ltibia 27.9359
lfoot 17.5096 -6.79375
ltoes -19.0421
186
root -14.087 17.8665 10.4226 -159.378 -79.0906 166.271
lowerback 11.123 -0.73641 -3.11306
upperback 0.295128 -1.25573 2.77633
thorax -5.80921 -0.512981 4.89165
lowerneck -23.4155 -1.42464 -7.08272
upperneck 17.3634 -0.274072 3.15617
head 9.33351 -0.248036 2.21165
rclavicle 1.86858e-014 -1.90833e-014
rhumerus -59.8151 0.702339 -85.2946
rradius 102.986
rwrist -17.8398
rhand -8.3982 23.5308
rfingers 7.12502
rthumb 17.5257 -5.69922
lclavicle 1.86858e-014 -1.90833e-014
lhumerus -40.1139 -3.02163 92.8372
lradius 129.316
lwrist 29.5028
lhand -11.9702 9.41806
lfingers 7.12502
lthumb 14.0858 38.9207
rfemur -35.2019 -0.682532 24.6905
rtibia 32.5986
rfoot -3.9693 1.00058
rtoes 2.80407
lfemur 6.98907 -8.51377 -23.3073
ltibia 27.7824
lfoot 19.7241 -6.69933
ltoes -13.4682
187
root -14.4475 17.9024 10.421 -157.726 -78.9396 164.499
lowerback 11.006 -0.794809 -3.03029
upperback 0.285964 -1.335 2.43595
thorax -5.75394 -0.55784 4.49045
lowerneck -23.576 -1.58226 -7.15874
upperneck 17.5957 -0.501542 3.36563
head 9.45627 -0.337276 2.26817
rclavicle 1.61016e-014 -2.38542e-015
rhumerus -60.1744 0.246323 -85.3802
rradius 102.895
rwrist -17.4266
rhand -8.06491 23.6649
rfingers 7.12502
rthumb 17.8464 -5.53623
lclavicle 1.61016e-014 -2.38542e-015
lhumerus -40.9081 -3.84223 92.7945
lradius 129.105
lwrist 29.7582
lhand -11.6945 9.46404
lfingers 7.12502
lthumb 14.3514 38.948
rfemur -34.6209 -0.817673 24.276
rtibia 29.8443
rfoot -2.89379 0.180376
rtoes 5.08111
lfemur 7.60673 -9.13674 -24.0413
ltibia 27.6489
lfoot 21.993 -8.78952
ltoes -12.2197
188
root -14.8205 17.9228 10.4407 -153.927 -78.8525 160.474
lowerback 10.7886 -0.867596 -3.4099
upperback 0.286548 -1.4771 2.33242
thorax -5.61062 -0.621381 4.61091
lowerneck -23.628 -1.74436 -7.69451
upperneck 17.8312 -0.544103 3.38214
head 9.55411 -0.397999 2.35763
rclavicle -6.16232e-015 -1.43125e-014
rhumerus -60.4932 0.118685 -84.7417
rradius 102.813
rwrist -16.7661
rhand -7.4588 23.7283
rfingers 7.12502
rthumb 18.4295 -5.41865
lclavicle -6.16232e-015 -1.43125e-014
lhumerus -41.7291 -4.31064 93.4638
lradius 128.764
lwrist 29.9305
lhand -11.1693 9.56859
lfingers 7.12502
lthumb 14.8574 39.0159
rfemur -33.995 -2.00486 23.7281
rtibia 27.6841
rfoot -1.87288 -0.432722
rtoes 3.80639
lfemur 8.12546 -10.5588 -25.6001
ltibia 28.1763
lfoot 24.2183 -9.3477
ltoes -11.6182
189
root -15.2288 17.9287 10.5073 -143.852 -78.6253 149.983
lowerback 10.2335 -1.21585 -3.83798
upperback 0.334384 -2.0128 1.47961
thorax -5.20855 -0.892969 4.0074
lowerneck -23.3757 -1.83666 -7.73733
upperneck 17.8716 -0.693068 3.43601
head 9.53397 -0.46667 2.36138
rclavicle -7.95139e-016 5.56597e-015
rhumerus -60.9108 -0.234515 -84.7061
rradius 102.831
rwrist -16.5041
rhand -7.31937 23.704
rfingers 7.12502
rthumb 18.5636 -5.43027
lclavicle -7.95139e-016 5.56597e-015
lhumerus -42.7191 -4.92278 93.7149
lradius 128.455
lwrist 29.6794
lhand -10.8816 10.3151
lfingers 7.12502
lthumb 15.1345 39.7417
rfemur -33.6423 -4.54992 21.9237
rtibia 26.7862
rfoot -1.28167 -0.812676
rtoes 1.06393
lfemur 8.86639 -12.6991 -28.8009
ltibia 28.8581
lfoot 26.3242 -8.94227
ltoes -5.08357
190
root -15.5222 17.9153 10.371 -147.221 -78.3073 153.415
lowerback 10.4409 -0.863243 -5.20265
upperback 0.175177 -1.69248 1.89794
thorax -5.47467 -0.682815 5.19264
lowerneck -23.0209 -1.86418 -7.60003
upperneck 17.8008 -0.769801 3.26103
head 9.45079 -0.515175 2.26418
rclavicle 3.97569e-016 1.19271e-014
rhumerus -61.2811 -0.36173 -84.8361
rradius 102.965
rwrist -16.8735
rhand -7.1354 23.5233
rfingers 7.12502
rthumb 18.7406 -5.59397
lclavicle 3.97569e-016 1.19271e-014
lhumerus -43.6026 -5.29605 93.9116
lradius 127.944
lwrist 29.2379
lhand -10.4217 10.7495
lfingers 7.12502
lthumb 15.5776 40.1422
rfemur -33.7358 -2.22447 22.4259
rtibia 26.4473
rfoot -0.962381 -4.55511
rtoes 1.44991
lfemur 8.35608 -11.582 -27.5484
ltibia 30.1481
lfoot 27.6851 -11.4059
ltoes 1.43153
191
root -15.905 17.8884 10.4626 -138.847 -77.5061 144.798
lowerback 10.0901 -0.84136 -5.6577
upperback 0.132514 -1.74234 1.05064
thorax -5.32953 -0.708647 4.54784
lowerneck -22.7923 -2.07659 -7.54586
upperneck 17.8732 -1.06444 3.09036
head 9.45332 -0.672186 2.15256
rclavicle 1.27222e-014 9.54166e-015
rhumerus -61.6673 -1.0078 -84.7133
rradius 103.069
rwrist -16.9775
rhand -6.90672 23.3743
rfingers 7.12502
rthumb 18.9605 -5.72157
lclavicle 1.27222e-014 9.54166e-015
lhumerus -44.3538 -6.09618 94.4501
lradius 127.125
lwrist 28.4127
lhand -9.56281 10.2291
lfingers 7.12502
lthumb 16.4046 39.5554
rfemur -33.8998 -4.41368 20.4732
rtibia 26.5485
rfoot 0.0112279 -4.52861
rtoes 1.58407
lfemur 8.14954 -12.8199 -30.6895
ltibia 31.8799
lfoot 27.9518 -11.4508
ltoes 3.55965
192
root -16.2621 17.8617 10.4736 -137.935 -77.5699 143.595
lowerback 10.1116 -0.485171 -5.40116
upperback 0.128543 -1.26275 0.65444
thorax -5.41653 -0.481371 3.91768
lowerneck -22.3084 -2.33973 -6.93632
upperneck 17.7655 -1.63666 2.9487
head 9.3563 -0.913316 1.92008
rclavicle 6.36111e-015 -3.97569e-015
rhumerus -62.0737 -2.42169 -84.7673
rradius 102.983
rwrist -16.6255
rhand -6.27319 23.4153
rfingers 7.12502
rthumb 19.5697 -5.61975
lclavicle 6.36111e-015 -3.97569e-015
lhumerus -45.2499 -7.79867 94.8444
lradius 126.104
lwrist 26.7171
lhand -9.92885 9.01713
lfingers 7.12502
lthumb 16.0522 38.3722
rfemur -33.3529 -4.95714 20.3259
rtibia 26.4303
rfoot 1.22561 -5.19362
rtoes 1.62096
lfemur 7.65355 -13.0078 -31.0985
ltibia 34.3478
lfoot 27.5258 -11.791
ltoes 4.27071
193
root -16.5778 17.834 10.4036 -142.364 -77.9365 147.866
lowerback 10.3743 -0.103893 -5.28016
upperback 0.11626 -0.745223 0.853554
thorax -5.63133 -0.220075 3.99048
lowerneck -21.9304 -2.37424 -6.22273
upperneck 17.5502 -1.85481 2.55933
head 9.2147 -1.00992 1.63651
rclavicle 7.55382e-015 1.98785e-014
rhumerus -62.0648 -3.34744 -84.941
rradius 102.809
rwrist -16.6385
rhand -4.90263 23.5207
rfingers 7.12502
rthumb 20.887 -5.37484
lclavicle 7.55382e-015 1.98785e-014
lhumerus -45.9444 -8.64038 94.7434
lradius 125.193
lwrist 26.0285
lhand -9.98943 8.41505
lfingers 7.12502
lthumb 15.9938 37.7748
rfemur -32.9207 -3.8982 21.3149
rtibia 26.7836
rfoot 2.32702 -5.97966
rtoes 2.12876
lfemur 6.78126 -12.236 -29.5576
ltibia 36.9366
lfoot 27.0933 -12.5592
ltoes 4.30499
194
root -16.8983 17.7938 10.3658 -144.778 -78.004 150.133
lowerback 10.5641 0.159222 -5.34044
upperback 0.0798236 -0.402181 1.04985
thorax -5.81236 -0.0403066 4.1845
lowerneck -21.8072 -2.46243 -6.27958
upperneck 17.6099 -1.93806 2.41914
head 9.21765 -1.07123 1.58567
rclavicle 1.76918e-014 7.95139e-015
rhumerus -61.9413 -3.51572 -85.0529
rradius 102.625
rwrist -16.9968
rhand -4.76959 23.4523
rfingers 7.12502
rthumb 21.0148 -5.42911
lclavicle 1.76918e-014 7.95139e-015
lhumerus -46.4524 -8.38508 94.6597
lradius 124.398
lwrist 27.2057
lhand -7.47258 8.76627
lfingers 7.12502
lthumb 18.4163 37.9145
rfemur -32.3688 -3.12961 21.6267
rtibia 26.9155
rfoot 3.74892 -5.67174
rtoes 4.7209
lfemur 5.65508 -11.6007 -28.7465
ltibia 39.866
lfoot 26.5333 -13.1183
ltoes 4.90369
